<svg id="bubbles" data-name="bubbles" xmlns="http://www.w3.org/2000/svg" viewBox="0 0 135.01 209.83"><defs><style>.cls-1{opacity:0.34;}.cls-2{fill:#bbeaff;}</style></defs><title>bubbles</title><g class="cls-1"><circle class="cls-2" cx="77.2" cy="105.3" r="10.2" transform="matrix(0.16, -0.99, 0.99, 0.16, -39.13, 164.58)"/><circle class="cls-2" cx="103.36" cy="19.95" r="12.23"/><path class="cls-2" d="M103.36,60.87A6.32,6.32,0,1,1,97,54.55,6.32,6.32,0,0,1,103.36,60.87Z"/><path class="cls-2" d="M97.45,151.24a6.32,6.32,0,1,1-6.32-6.32A6.33,6.33,0,0,1,97.45,151.24Z"/><path class="cls-2" d="M125.26,56.36A6.33,6.33,0,1,1,118.94,50,6.32,6.32,0,0,1,125.26,56.36Z"/><path class="cls-2" d="M69.93,180.72a6.33,6.33,0,1,1-6.32-6.32A6.32,6.32,0,0,1,69.93,180.72Z"/><path class="cls-2" d="M54.36,164.17A6.33,6.33,0,1,1,48,157.84,6.32,6.32,0,0,1,54.36,164.17Z"/><path class="cls-2" d="M27.39,197.74a3.81,3.81,0,1,1-3.8-3.8A3.8,3.8,0,0,1,27.39,197.74Z"/><path class="cls-2" d="M67,150.12a6.32,6.32,0,1,1-6.32-6.33A6.32,6.32,0,0,1,67,150.12Z"/><circle class="cls-2" cx="109.69" cy="98.97" r="6.32"/></g></svg>