<svg id="fisherman" data-name="fisherman" xmlns="http://www.w3.org/2000/svg" viewBox="0 0 257.54 256.12"><defs><style>.cls-1{fill:#194766;}.cls-2{fill:#febe92;}.cls-3{fill:#fca87c;}.cls-4{fill:#322421;}.cls-5{fill:#633e2c;}.cls-6{fill:#2d1c14;}.cls-7{fill:#ff796b;}.cls-8{fill:#2c5d85;}.cls-9{fill:#123c54;}.cls-10{fill:#0c4d72;opacity:0.6;}.cls-11{fill:#647229;}.cls-12{fill:#210f0f;}.cls-13{fill:#4b403c;}.cls-14{fill:none;stroke:#485260;stroke-miterlimit:10;}.cls-15{fill:#ff4a03;}.cls-16{fill:#fabe4c;}.cls-17{fill:#65210f;}.cls-18{fill:#9fa5bf;}.cls-19{fill:#d03100;}.cls-20,.cls-21{fill:#9e220a;}.cls-21{opacity:0.62;}.cls-22{fill:#ffb233;}.cls-23{fill:#673e37;}.cls-24{fill:#361817;}.cls-25{fill:#81933d;}.cls-26{fill:#feca77;opacity:0.4;}.cls-27{fill:#d89852;}.cls-28{fill:#8a411e;}.cls-29{fill:#bf6c2e;}.cls-30{fill:#fde494;}.cls-31{fill:#f65737;}</style></defs><title>fisherman</title><path class="cls-1" d="M87.47,4A3.83,3.83,0,1,0,91.1,0,3.82,3.82,0,0,0,87.47,4Z"/><path class="cls-2" d="M82.82,33.34a9.84,9.84,0,0,0,10.34,9.33l6-.3A9.85,9.85,0,0,0,108.51,32l-.41-8a9.86,9.86,0,0,0-10.34-9.34l-6,.31a9.85,9.85,0,0,0-9.33,10.34Z"/><path class="cls-3" d="M82.82,33.34a9.84,9.84,0,0,0,10.34,9.33l6-.3c4.63-.24,3.44-3.71,3.33-8,0-.79,3.06-.9,3-1.87l-1.9-5.25c-.28-5.43-.43-12.82-5.86-12.55l-6,.31a9.85,9.85,0,0,0-9.33,10.34Z"/><path class="cls-4" d="M94.64,26.3a4.89,4.89,0,0,0,1,3.64A3.88,3.88,0,0,0,98.86,31H99a4.47,4.47,0,0,0,3.24-1.51,5.78,5.78,0,0,0,1.19-3.6l.35,0a6.41,6.41,0,0,0,1.53,3.85,3,3,0,0,0,2.24.84h.1a2.59,2.59,0,0,0,2-1c1-1.18.93-3.13.84-4.07.56-.05,1-.42,1-.83s-.52-.76-1.11-.73l-15.4.78c-.59,0-1,.41-1,.84A.84.84,0,0,0,94.64,26.3Zm10.17-.47,4.59-.24a5.12,5.12,0,0,1-.6,3.36,1.63,1.63,0,0,1-1.29.58A2,2,0,0,1,106,29,5.43,5.43,0,0,1,104.81,25.83Zm-9.13.56a.27.27,0,0,0,0-.09l6.7-.35a4.77,4.77,0,0,1-.95,2.88A3.48,3.48,0,0,1,98.92,30a3,3,0,0,1-2.48-.74A3.94,3.94,0,0,1,95.68,26.39Z"/><path class="cls-5" d="M87.79,30.66c5.13.56,7.16,7.63,8.88,5.44s3.88-2.87,5.2-2.33a9.2,9.2,0,0,1,1,.55c2.89-1.17,4.19-.87,5.1.54a7.75,7.75,0,0,0,.43-4s2.29,4,.9,6.5c1.1,1,6.71,5.49.93,11.73-4.54,4.9-23.12-2-27.84-8.26S87.79,30.66,87.79,30.66Z"/><path class="cls-6" d="M99.11,28.06a.8.8,0,0,0,1.6-.08.8.8,0,0,0-1.6.08Z"/><path class="cls-6" d="M106,27.71a.81.81,0,0,0,1.61-.08.8.8,0,0,0-.84-.76A.8.8,0,0,0,106,27.71Z"/><path class="cls-6" d="M96.06,22.65a.57.57,0,0,0,.51.63l5.34.56a.58.58,0,0,0,.63-.51h0a.59.59,0,0,0-.51-.63l-5.34-.55a.57.57,0,0,0-.63.5Z"/><path class="cls-6" d="M104.63,23.14c.07.31.3.52.52.47l3.83-.8c.22,0,.35-.33.29-.64h0c-.07-.31-.3-.52-.52-.47l-3.83.8a.52.52,0,0,0-.29.64Z"/><path class="cls-2" d="M103.08,36.53a3.58,3.58,0,0,1-2.65,1.66c-.33,0-.63.07.12.19a6.65,6.65,0,0,0,4.92-.63c1.73-.86-.52.17-2-1.3A.28.28,0,0,0,103.08,36.53Z"/><path class="cls-2" d="M100.55,38.38a6.65,6.65,0,0,0,4.92-.63c1.32-.66.33-.21-.87-.61a2.76,2.76,0,0,1-1.12-.69.28.28,0,0,0-.4.08,4,4,0,0,1-1.21,1.19h0a3,3,0,0,1-1.43.47C100.1,38.22,99.8,38.26,100.55,38.38Z"/><path class="cls-7" d="M101.87,37.72a3.22,3.22,0,0,0,1.29,0,2.77,2.77,0,0,0,1.44-.6,2.76,2.76,0,0,1-1.12-.69.28.28,0,0,0-.4.08A4,4,0,0,1,101.87,37.72Z"/><path class="cls-8" d="M83,21.4c0-.34,1.2-3.21,1.18-3.57l-.1-2.09c-.4-7.63,8.54-11,12.78-12.19,4.58-1.34,5.55,9.57,10.1,11.57,0,0-.14,4.12-.17,4.47Z"/><path class="cls-4" d="M82.51,27.39c0,.67.42,1.19.85,1.17L94.64,28c.43,0,.75-.58.72-1.25h0c0-.67-.41-1.19-.85-1.17l-11.27.58c-.44,0-.76.58-.73,1.24Z"/><path class="cls-9" d="M85.61,16.77h0c.15,0,15,.15,18.94-2.08a.19.19,0,0,1,.23,0,.14.14,0,0,1,0,.2,6.89,6.89,0,0,1-1.24.53l.76,2a.14.14,0,0,1-.1.18h-.05a.18.18,0,0,1-.16-.1l-.76-2c-.45.14-.94.26-1.47.38l.53,2.13a.14.14,0,0,1-.12.17h0a.15.15,0,0,1-.15-.12L101.39,16q-.81.16-1.71.3l.55,2.28a.14.14,0,0,1-.12.17h0a.16.16,0,0,1-.16-.11l-.55-2.3c-.61.09-1.23.16-1.87.23l.46,2a.15.15,0,0,1-.13.17h0a.15.15,0,0,1-.16-.11l-.46-2c-.62.06-1.25.12-1.88.16l.43,2.31a.15.15,0,0,1-.13.17h0a.15.15,0,0,1-.16-.12L95,16.79l-1.72.1.51,2.17a.14.14,0,0,1-.12.17h0a.17.17,0,0,1-.16-.12l-.52-2.21L91.17,17l.52,2.08a.14.14,0,0,1-.12.17h0a.15.15,0,0,1-.15-.12L90.84,17,89.07,17l.61,2.21a.15.15,0,0,1-.12.18h0a.16.16,0,0,1-.16-.11l-.62-2.27H87l0,2.48a.14.14,0,0,1-.12.17h0a.15.15,0,0,1-.16-.11l0-2.55h-1a.15.15,0,0,1-.16-.15A.15.15,0,0,1,85.61,16.77Z"/><path class="cls-10" d="M87.92,15.2c2.19-.12,6.69-1,3.52-6.3-1.61-2.7-2.29,3.76-3.77,5.75C87.42,15,87.28,15.24,87.92,15.2Z"/><path class="cls-8" d="M94.76,49l.14-.11.16-.29A12.16,12.16,0,0,1,100.72,58a1.22,1.22,0,1,1-.52,0,11.54,11.54,0,0,0-4.42-8.29,12.89,12.89,0,0,1,.58,9.2,1.22,1.22,0,0,1-1,2.22,1.22,1.22,0,0,1,.48-2.37C97.49,52.85,94.79,49.06,94.76,49Z"/><path class="cls-11" d="M49,86S49.7,103.65,67,103.46c0,0,27.05-8.69,25.35-6.06-.59.91-4.09,3.72-.84,4.25,0,0-2.56,1.41.59,1.15A4.34,4.34,0,0,0,90.6,107c.38,1.71,9.38,1.72,9.38,1.72s.23-.45,0-4.05c0,0,5.71-13.8-2.59-13.85l-26-1S53.16,88.68,49,86Z"/><polygon class="cls-12" points="88.74 102.31 98.42 102.31 98.42 115.68 90.42 115.55 88.74 102.31"/><path class="cls-13" d="M117.55,73.42A1.9,1.9,0,0,0,120,74.49l22.82-9.13c1-.39.48-1.3.08-2.28l0-.06c-.39-1-.51-1.61-1.49-1.22l-22.81,9.13a1.91,1.91,0,0,0-1.07,2.49Z"/><path class="cls-2" d="M116,73.19l-3.45,1.09,1.29,6,4.9-1.84a7.4,7.4,0,0,1,4.84,1.31s2.48.78,3.66-3.79l1.18-4.32L125.58,69s3.4-5.23.52-5.88h-.45s-.69,3.3-1.18,3.49c0,0-5.76.33-6.31,1.83Z"/><path class="cls-4" d="M142.47,62.46s58.07-29.39,112.45-11.65c0,0,1.37.5.33.85a1.37,1.37,0,0,1-.63-.06l-.53-.16C232,43.66,196.49,40.26,142.94,64Z"/><line class="cls-14" x1="254.92" y1="50.81" x2="254.92" y2="256.12"/><path class="cls-14" d="M142.94,64s24,6,20.75-8.19c0,0,21.53,4.35,23.69-6.65,0,0,33.24,5.21,44.57-2.72,0,0,10.4,5.18,22.14,5"/><path class="cls-15" d="M137.08,67.75a4.45,4.45,0,1,0,4.45-4.45A4.44,4.44,0,0,0,137.08,67.75Z"/><path class="cls-16" d="M138.72,67.75a2.81,2.81,0,1,0,2.81-2.81A2.81,2.81,0,0,0,138.72,67.75Z"/><path class="cls-17" d="M141.12,67.75a.41.41,0,1,0,.41-.41A.4.4,0,0,0,141.12,67.75Z"/><rect class="cls-18" x="111.77" y="72.98" width="4.3" height="7.66" transform="translate(-14.98 29.24) rotate(-13.73)"/><path class="cls-19" d="M45.41,87.44s-.78-4.88-3.14-5.06a3.91,3.91,0,0,1,1-4.09l-.75-.86a1.61,1.61,0,0,1-.44-1.4C42.44,69.9,47.1,31.69,84,31c0,0,10.72,2.27,11.59,16,0,0-1.59,37.6-16.75,39.44C78.85,86.45,45.06,94.85,45.41,87.44Z"/><path class="cls-15" d="M93.81,52.53s1.63-11.17-10.41-9.94S71.8,59.26,77.07,61.15C77.07,61.15,92.4,70.72,93.81,52.53Z"/><path class="cls-20" d="M93.81,52.44s1.53-9.92-9.74-8.82S73.22,58.43,78.15,60.1C78.15,60.1,92.5,68.6,93.81,52.44Z"/><path class="cls-21" d="M85,65.51s-14.12-4.28-13-2.35A17.66,17.66,0,0,0,75.19,67s-9,.21-4.78,2.51-12.15,5.72-3.36,5.71-7.25,5.11-1.27,5.54S91.18,68.17,85,65.51Z"/><path class="cls-22" d="M77.3,51S72.78,89.39,84,85.8A88.68,88.68,0,0,1,114.25,82l-1.66-7.7-.43-2s-18.3,4.35-21.79,1.91c0,0,4-1.73,1-2.09,0,0,1.06-3.73-.69-3.69,0,0,5.62-21.08-.87-22.45C89.85,46,79.57,43,77.3,51Z"/><path class="cls-15" d="M87.86,32.41c0-2.27-1.34-5.24-2.43-7.32-1.73-3.29-5.44-6.83-10.7-6.8a3.18,3.18,0,0,0-2.54.87c-.6.47-1.31,1.87-.86,2.51-1.47.26-5.72,1.4-3.39,2.86-1.89,1.5-4.85,4.71-.72,5.53-3.34,1.56-4.49,3.88.23,4.58,0,0,14.6-3,20.41-1.83"/><rect class="cls-23" x="43.93" y="103.65" width="35.38" height="3.2"/><rect class="cls-23" x="67.46" y="107.51" width="5.66" height="8.07"/><rect class="cls-23" x="50.03" y="107.51" width="5.66" height="8.07"/><rect class="cls-24" x="46.63" y="106.85" width="29.79" height="1.33"/><path class="cls-25" d="M52.13,101.37c.25.19.5.36.78.54,4.9,3.14,13.66,3.73,29.28-4l13.42-5s-3.58,3,0,2.74c0,0-.66,1.73.91,1.12a5,5,0,0,0-.57,5c.83,1.77,10.37-.53,10.37-.53s.13-.55-1-4.44c0,0,2.62-16.58-6.18-14.51L71.33,88s-19.6,3.38-24.7,1.57C46.63,89.53,46.55,97.16,52.13,101.37Z"/><polygon class="cls-24" points="94.3 100.16 108.5 100.16 108.5 113.54 95.6 113.41 94.3 100.16"/><rect class="cls-26" x="104.23" y="100.16" width="2.09" height="15.55"/><path class="cls-20" d="M44.8,83.79h0c.23,0,24,.27,30.35-3.75a.27.27,0,0,1,.36.08.26.26,0,0,1-.08.36,10.87,10.87,0,0,1-2,1l1.23,3.61a.28.28,0,0,1-.17.34h-.08a.27.27,0,0,1-.25-.18L73,81.61c-.72.25-1.51.47-2.36.68l.86,3.83a.27.27,0,0,1-.2.32H71.2a.26.26,0,0,1-.25-.2l-.86-3.83c-.87.19-1.78.37-2.74.52L68.24,87a.27.27,0,0,1-.2.31H68a.27.27,0,0,1-.26-.2L66.83,83c-1,.15-2,.28-3,.4L64.58,87a.28.28,0,0,1-.21.31h-.05a.25.25,0,0,1-.25-.21l-.75-3.66c-1,.11-2,.21-3,.29L61,87.92a.27.27,0,0,1-.22.3h0a.26.26,0,0,1-.26-.22l-.69-4.19c-.93.08-1.85.14-2.75.19l.82,3.91a.26.26,0,0,1-.21.31h0a.25.25,0,0,1-.25-.21l-.84-4c-1,.06-1.9.1-2.8.14l.84,3.73a.27.27,0,0,1-.2.32H54.3A.27.27,0,0,1,54,88l-.85-3.83-2.84.08,1,4a.26.26,0,0,1-.19.31h-.07a.26.26,0,0,1-.25-.2l-1-4.09-2.86,0,1,3.94a.25.25,0,0,1-.19.31h-.06a.27.27,0,0,1-.26-.2l-1-4.05H44.8a.26.26,0,0,1-.26-.27A.26.26,0,0,1,44.8,83.79Z"/><path class="cls-21" d="M44.34,81.86c2.19-.56,7.07-1.67,9.52-1.13,3.23.7,0,1.43-3.83,1.36a22,22,0,0,0-5,.76c-.14,0-.44,0-.33-.11.73-.58-.34-.29-.76-.42C43.74,82.25,43.65,82,44.34,81.86Z"/><path class="cls-27" d="M2.05,103.17l1.31,4.47L5,113.14l.46,1.57,1.77,6,.46,1.57,1.78,6.07.46,1.57,2.23,7.6s38.07,8.82,91.25,8.82c43.86,0,71.75-4.95,71.75-4.95a86.36,86.36,0,0,0,16-5.78c.85-.41,1.71-.84,2.57-1.29A57.72,57.72,0,0,0,207,125h0l1.1-1.11a32.89,32.89,0,0,0,6-8.39v0l.81-.63-.33-.41a25.19,25.19,0,0,0,2.54-8.65c0-.61.06-1.6.06-2.24,0,0-1.59.28-4,.73-11.6,2.16-50.43,8.47-107.85,8.47-54.26,0-84.51-5.16-96.74-7.91C4.12,103.85,2.05,103.17,2.05,103.17Z"/><path class="cls-28" d="M3.59,111.15l1.23,4.46,1.52,5.5.43,1.57,1.66,6,.43,1.57,1.68,6.07L11,137.9l2.1,7.61s35.78,8.81,85.77,8.81c41.22,0,67.44-4.95,67.44-4.95a77.31,77.31,0,0,0,15-5.77c.79-.41,1.61-.84,2.42-1.29A53.94,53.94,0,0,0,196.2,133h0l1-1.12a32.86,32.86,0,0,0,5.59-8.39v0l.76-.62-.31-.41a26.31,26.31,0,0,0,2.39-8.66c0-.61.06-1.6.06-2.23,0,0-1.5.27-3.75.72-10.9,2.16-47.4,8.48-101.38,8.48-51,0-79.43-5.17-90.93-7.91C5.53,111.82,3.59,111.15,3.59,111.15Z"/><path class="cls-29" d="M2.05,107.54,3.36,112,5,117.51l.46,1.57,1.77,6,.46,1.57,1.78,6.07.46,1.57,2.23,7.6s38.07,8.81,91.25,8.81c43.86,0,71.75-4.94,71.75-4.94a86.36,86.36,0,0,0,16-5.78c.85-.41,1.71-.84,2.57-1.29A57.72,57.72,0,0,0,207,129.38h0l1.1-1.11a33.25,33.25,0,0,0,6-8.39v0l.45-1,0,0a26.9,26.9,0,0,0,2.18-9c.05-.62.07-1.24.07-1.87,0,0-1.24.27-3.64.72-11.6,2.15-50.43,8.47-107.85,8.47-54.26,0-84.51-5.16-96.74-7.91C4.12,108.22,2.05,107.54,2.05,107.54Z"/><path class="cls-29" d="M3,111.27a2.36,2.36,0,0,0,3.08,1.79l.87-.35a3,3,0,0,0,1.51-3.65L5.59,99a2.36,2.36,0,0,0-3.08-1.79l-.87.35a3,3,0,0,0-1.51,3.65Z"/><path class="cls-28" d="M11.17,118.59l33.25,4.91h.11a.74.74,0,0,0,.11-1.48L10.7,117Z"/><path class="cls-28" d="M13.39,126.17l45.41,6.55h.11a.74.74,0,0,0,.1-1.47L12.93,124.6Z"/><path class="cls-28" d="M15.63,133.81l31.46,4.64h.11a.73.73,0,0,0,.73-.63.74.74,0,0,0-.62-.84l-32.14-4.75Z"/><path class="cls-28" d="M208,117.59l-30.2,3.27c-.37,0-.62.29-.57.56a.65.65,0,0,0,.67.43h.1l29.52-3.19Z"/><path class="cls-28" d="M201.58,127,164,131c-.36,0-.62.29-.57.57a.65.65,0,0,0,.67.42h.1l36.33-3.85Z"/><path class="cls-28" d="M171.1,139.73a.64.64,0,0,0,.67.42h.1l12.73-1.38c.85-.4,1.71-.83,2.57-1.28l-15.5,1.68C171.3,139.21,171,139.46,171.1,139.73Z"/><path class="cls-30" d="M252.29,128.21a21.63,21.63,0,0,0,.11,2.18c.32,3.2,1.33,5.53,2.52,5.53s2.2-2.33,2.52-5.53c.06-.69.1-1.42.1-2.18s0-1.49-.1-2.18c-.32-3.19-1.33-5.53-2.52-5.53s-2.2,2.34-2.52,5.53A21.63,21.63,0,0,0,252.29,128.21Z"/><path class="cls-31" d="M252.29,128.21a21.63,21.63,0,0,0,.11,2.18h5c.06-.69.1-1.42.1-2.18s0-1.49-.1-2.18h-5A21.63,21.63,0,0,0,252.29,128.21Z"/></svg>