<?xml version="1.0" encoding="utf-8"?>
<!-- Generator: Adobe Illustrator 24.0.0, SVG Export Plug-In . SVG Version: 6.00 Build 0)  -->
<svg version="1.1" id="Ñëîé_1" xmlns="http://www.w3.org/2000/svg" xmlns:xlink="http://www.w3.org/1999/xlink" x="0px" y="0px"
	 viewBox="0 0 850.4 858.9" style="enable-background:new 0 0 850.4 858.9;" xml:space="preserve">
<style type="text/css">
	.st0{display:none;}
	.st1{display:inline;fill:#D7EFF2;}
	.st2{display:inline;fill:#FFFFFF;}
	.st3{display:inline;}
	.st4{fill:#194766;}
	.st5{fill:#FEBE92;}
	.st6{fill:#FCA87C;}
	.st7{fill:#322421;}
	.st8{fill:#633E2C;}
	.st9{fill:#2D1C14;}
	.st10{fill:#FF796B;}
	.st11{fill:#2C5D85;}
	.st12{fill:#123C54;}
	.st13{opacity:0.6;fill:#0C4D72;}
	.st14{display:inline;fill:#2C5D85;}
	.st15{display:inline;fill:#647229;}
	.st16{display:inline;fill:#210F0F;}
	.st17{fill:#4B403C;}
	.st18{fill:none;stroke:#485260;stroke-miterlimit:10;}
	.st19{fill:#FF4A03;}
	.st20{fill:#FABE4C;}
	.st21{fill:#65210F;}
	.st22{fill:#9FA5BF;}
	.st23{display:inline;fill:#D03100;}
	.st24{display:inline;fill:#FF4A03;}
	.st25{display:inline;fill:#9E220A;}
	.st26{display:inline;opacity:0.62;fill:#9E220A;}
	.st27{display:inline;fill:#FFB233;}
	.st28{display:inline;fill:#673E37;}
	.st29{display:inline;fill:#361817;}
	.st30{display:inline;fill:#81933D;}
	.st31{display:inline;opacity:0.4;fill:#FECA77;}
	.st32{fill:#D89852;}
	.st33{fill:#8A411E;}
	.st34{fill:#BF6C2E;}
	.st35{fill:#FDE494;}
	.st36{fill:#F65737;}
	.st37{display:none;opacity:0.83;fill:#4CADD3;}
	.st38{display:inline;fill:#8DD6FF;}
	.st39{display:none;opacity:0.4;fill:none;stroke:#3F3F3F;stroke-miterlimit:10;}
	.st40{clip-path:url(#SVGID_2_);}
	.st41{fill:#234551;}
	.st42{opacity:0.83;fill:#4CADD3;}
	.st43{fill:#8DD6FF;}
	.st44{fill:#475A7C;}
	.st45{opacity:0.4;}
	.st46{fill:#BBEAFF;}
</style>
<g class="st0">
	<rect y="-447.1" class="st1" width="850.4" height="1306"/>
	<path class="st2" d="M382-333.4c-7,0-13.4,2.5-18.4,6.7c-8.1-16.7-25.2-28.2-45.1-28.2c-3.2,0-6.3,0.3-9.3,0.9
		c-11.2-23.4-35-39.5-62.7-39.5c-27.9,0-51.9,16.4-62.9,40.1c-3.9-1-7.9-1.5-12.1-1.5c-27.7,0-50.1,22.4-50.1,50.1
		c0,27.7,22.4,50.1,50.1,50.1c13.2,0,25.1-5.1,34.1-13.4c11.5,8.4,25.6,13.4,41,13.4c14.6,0,28.1-4.5,39.3-12.2
		c8.8,7.6,20.2,12.2,32.7,12.2c19.8,0,36.9-11.5,45.1-28.2c5,4.2,11.4,6.7,18.4,6.7c15.8,0,28.6-12.8,28.6-28.6
		S397.7-333.4,382-333.4z"/>
	<path class="st2" d="M719.6-300.9c-3.3,0-6.4,1.2-8.7,3.2c-3.9-7.9-12-13.4-21.5-13.4c-1.5,0-3,0.1-4.4,0.4
		c-5.3-11.1-16.7-18.8-29.8-18.8c-13.3,0-24.7,7.8-30,19.1c-1.8-0.5-3.8-0.7-5.8-0.7c-13.2,0-23.8,10.7-23.8,23.8
		c0,13.2,10.7,23.8,23.8,23.8c6.3,0,12-2.4,16.2-6.4c5.5,4,12.2,6.4,19.5,6.4c6.9,0,13.4-2.1,18.7-5.8c4.2,3.6,9.6,5.8,15.6,5.8
		c9.4,0,17.6-5.5,21.5-13.4c2.4,2,5.4,3.2,8.7,3.2c7.5,0,13.6-6.1,13.6-13.6C733.2-294.8,727.1-300.9,719.6-300.9z"/>
</g>
<g class="st0">
	<g class="st3">
		<g>
			<g>
				<path class="st4" d="M488.1-224.1c-0.1,2.3-2.1,4-4.3,3.9c-2.3-0.1-4-2.1-3.9-4.3c0.1-2.3,2.1-4,4.3-3.9
					C486.5-228.3,488.2-226.4,488.1-224.1z"/>
				<path class="st5" d="M493.1-192.6c-0.3,5.8-5.3,10.3-11.1,10l-6.5-0.3c-5.8-0.3-10.3-5.3-10-11.1l0.4-8.6
					c0.3-5.8,5.3-10.3,11.1-10l6.5,0.3c5.8,0.3,10.3,5.3,10,11.1L493.1-192.6z"/>
				<path class="st6" d="M493.1-192.6c-0.3,5.8-5.3,10.3-11.1,10l-6.5-0.3c-5-0.3-3.7-4-3.6-8.6c0-0.8-3.3-1-3.2-2l2-5.7
					c0.3-5.8,0.5-13.8,6.3-13.5l6.5,0.3c5.8,0.3,10.3,5.3,10,11.1L493.1-192.6z"/>
				<path class="st7" d="M481.2-200.9c0-0.5-0.5-0.9-1.1-0.9l-16.6-0.8c-0.6,0-1.2,0.3-1.2,0.8c0,0.4,0.4,0.8,1,0.9
					c-0.1,1-0.1,3.1,0.9,4.4c0.5,0.6,1.2,1,2.1,1c0,0,0.1,0,0.1,0c0.9,0,1.7-0.3,2.4-0.9c1.2-1.2,1.6-3.2,1.7-4.1l0.4,0
					c0,0.9,0.2,2.6,1.3,3.9c0.8,1,2,1.5,3.5,1.6c0,0,0.1,0,0.1,0c1.5,0.1,2.6-0.3,3.4-1.2c1.3-1.4,1.1-3.5,1.1-3.9
					C480.9-200.3,481.2-200.5,481.2-200.9z M468.2-197.3c-0.4,0.4-1,0.6-1.6,0.6c-0.6,0-1.1-0.2-1.4-0.6c-0.7-0.9-0.7-2.6-0.6-3.6
					l4.9,0.3C469.4-199.7,469-198.1,468.2-197.3z M478.5-197c-0.6,0.6-1.5,0.9-2.7,0.8c-1.2-0.1-2.1-0.5-2.7-1.2c-0.8-1-1-2.4-1-3.1
					l7.2,0.4c0,0,0,0.1,0,0.1C479.3-200,479.5-198.1,478.5-197z"/>
				<path class="st8" d="M487.8-195.5c-5.5,0.6-7.7,8.2-9.5,5.9c-1.8-2.3-4.2-3.1-5.6-2.5c-0.5,0.2-1.1,0.6-1.1,0.6
					c-3.1-1.3-4.5-0.9-5.5,0.6c-0.4-1-0.7-2.4-0.5-4.3c0,0-2.5,4.3-1,7c-1.2,1.1-7.2,5.9-1,12.6c4.9,5.3,24.9-2.1,29.9-8.9
					C498.6-191.3,487.8-195.5,487.8-195.5z"/>
				<path class="st9" d="M475.6-198.3c0,0.5-0.4,0.8-0.9,0.8c-0.5,0-0.8-0.4-0.8-0.9c0-0.5,0.4-0.8,0.9-0.8
					C475.3-199.2,475.6-198.7,475.6-198.3z"/>
				<path class="st9" d="M468.2-198.6c0,0.5-0.4,0.8-0.9,0.8c-0.5,0-0.8-0.4-0.8-0.9c0-0.5,0.4-0.8,0.9-0.8
					C467.9-199.5,468.2-199.1,468.2-198.6z"/>
				<path class="st9" d="M478.9-204.1c0,0.3-0.2,0.6-0.5,0.7l-5.7,0.6c-0.3,0-0.6-0.2-0.7-0.5l0,0c0-0.3,0.2-0.6,0.5-0.7l5.7-0.6
					C478.5-204.7,478.8-204.4,478.9-204.1L478.9-204.1z"/>
				<path class="st9" d="M469.7-203.6c-0.1,0.3-0.3,0.6-0.6,0.5l-4.1-0.9c-0.2,0-0.4-0.4-0.3-0.7l0,0c0.1-0.3,0.3-0.6,0.6-0.5
					l4.1,0.9C469.6-204.2,469.7-203.9,469.7-203.6L469.7-203.6z"/>
				<path class="st5" d="M471.3-189.2c0.3,0.5,1.3,1.7,2.8,1.8c0.4,0,0.7,0.1-0.1,0.2c-1.4,0.2-2.8,0.6-5.3-0.7
					c-1.9-0.9,0.6,0.2,2.1-1.4C471-189.4,471.2-189.3,471.3-189.2z"/>
				<path class="st5" d="M474-187.2c-1.4,0.2-2.8,0.6-5.3-0.7c-1.4-0.7-0.4-0.2,0.9-0.7c0.4-0.1,0.8-0.4,1.2-0.7
					c0.1-0.1,0.3-0.1,0.4,0.1c0.2,0.3,0.6,0.9,1.3,1.3c0,0,0,0,0,0c0.4,0.3,0.9,0.5,1.5,0.5C474.5-187.4,474.9-187.3,474-187.2z"/>
				<path class="st10" d="M472.6-187.9c-0.4,0.1-0.8,0.1-1.4,0c-0.7-0.1-1.3-0.4-1.6-0.6c0.4-0.1,0.8-0.4,1.2-0.7
					c0.1-0.1,0.3-0.1,0.4,0.1C471.5-188.8,472-188.3,472.6-187.9z"/>
				<path class="st11" d="M492.9-205.4c0.1-0.4-1.3-3.5-1.3-3.8l0.1-2.2c0.4-8.2-9.2-11.8-13.7-13.1c-4.9-1.4-6,10.3-10.9,12.4
					c0,0,0.2,4.4,0.2,4.8L492.9-205.4z"/>
			</g>
			<path class="st7" d="M493.4-199c0,0.7-0.4,1.3-0.9,1.3l-12.1-0.6c-0.5,0-0.8-0.6-0.8-1.3l0,0c0-0.7,0.4-1.3,0.9-1.3l12.1,0.6
				C493.1-200.3,493.5-199.7,493.4-199L493.4-199z"/>
		</g>
		<path class="st12" d="M490.1-210.4C490.1-210.4,490.1-210.4,490.1-210.4c-0.2,0-16.1,0.2-20.4-2.2c-0.1,0-0.2,0-0.2,0
			c-0.1,0.1,0,0.2,0.1,0.2c0.4,0.2,0.8,0.4,1.3,0.6l-0.8,2.2c0,0.1,0,0.2,0.1,0.2c0,0,0,0,0.1,0c0.1,0,0.1,0,0.2-0.1l0.8-2.2
			c0.5,0.1,1,0.3,1.6,0.4l-0.6,2.3c0,0.1,0,0.2,0.1,0.2c0,0,0,0,0,0c0.1,0,0.2,0,0.2-0.1l0.6-2.3c0.6,0.1,1.2,0.2,1.8,0.3l-0.6,2.5
			c0,0.1,0,0.2,0.1,0.2c0,0,0,0,0,0c0.1,0,0.2,0,0.2-0.1l0.6-2.5c0.7,0.1,1.3,0.2,2,0.2l-0.5,2.2c0,0.1,0,0.2,0.1,0.2c0,0,0,0,0,0
			c0.1,0,0.2-0.1,0.2-0.1l0.5-2.2c0.7,0.1,1.3,0.1,2,0.2l-0.5,2.5c0,0.1,0,0.2,0.1,0.2c0,0,0,0,0,0c0.1,0,0.2-0.1,0.2-0.1l0.5-2.5
			c0.6,0,1.2,0.1,1.8,0.1l-0.5,2.3c0,0.1,0,0.2,0.1,0.2c0,0,0,0,0,0c0.1,0,0.2-0.1,0.2-0.1l0.6-2.4c0.6,0,1.3,0.1,1.9,0.1l-0.6,2.2
			c0,0.1,0,0.2,0.1,0.2c0,0,0,0,0,0c0.1,0,0.2-0.1,0.2-0.1l0.6-2.3c0.7,0,1.3,0,1.9,0l-0.7,2.4c0,0.1,0,0.2,0.1,0.2c0,0,0,0,0,0
			c0.1,0,0.2,0,0.2-0.1l0.7-2.4c0.7,0,1.4,0,1.9,0l0,2.7c0,0.1,0,0.2,0.1,0.2c0,0,0,0,0,0c0.1,0,0.2,0,0.2-0.1l0-2.7
			c0,0,0.1,0,0.1,0c0.5,0,0.9,0,1,0c0.1,0,0.2-0.1,0.2-0.2C490.3-210.3,490.2-210.4,490.1-210.4z"/>
		<path class="st13" d="M487.6-212.1c-2.4-0.1-7.2-1.1-3.8-6.8c1.7-2.9,2.5,4,4,6.2C488.2-212.3,488.3-212.1,487.6-212.1z"/>
	</g>
	<path class="st14" d="M480.3-175.7l-0.1-0.1l-0.2-0.3c-0.1,0-5.6,3.2-6.1,10.1c-0.6,0.1-1.1,0.7-1.1,1.3c0,0.7,0.6,1.3,1.3,1.3
		c0.7,0,1.3-0.6,1.3-1.3c0-0.6-0.4-1.1-1-1.3c0.3-4.8,3.2-7.7,4.7-8.9c-0.8,1.7-1.9,5.1-0.6,9.9c-0.5,0.3-0.8,0.9-0.6,1.5
		c0.2,0.7,1,1.1,1.7,0.8c0.7-0.2,1.1-1,0.8-1.7c-0.2-0.6-0.8-0.9-1.4-0.9C477.3-171.6,480.2-175.7,480.3-175.7z"/>
	<path class="st15" d="M529.5-136c0,0-0.8,18.9-19.4,18.7c0,0-29.1-9.3-27.2-6.5c0.6,1,4.4,4,0.9,4.6c0,0,2.7,1.5-0.6,1.2
		c0,0,2.3,1.7,1.6,4.6c-0.4,1.8-10.1,1.9-10.1,1.9s-0.2-0.5-0.1-4.3c0,0-6.1-14.8,2.8-14.9l28-1.1C505.4-131.8,525-133.1,529.5-136z
		"/>
	<polygon class="st16" points="486.7,-118.5 476.3,-118.5 476.3,-104.1 484.9,-104.2 	"/>
	<g class="st3">
		<path class="st17" d="M455.8-149.5c-0.4,1.1-1.6,1.6-2.7,1.1l-24.5-9.8c-1.1-0.4-0.5-1.4-0.1-2.5l0-0.1c0.4-1.1,0.5-1.7,1.6-1.3
			l24.5,9.8C455.7-151.8,456.2-150.6,455.8-149.5L455.8-149.5z"/>
		<path class="st5" d="M457.4-149.8l3.7,1.2l-1.4,6.4l-5.3-2c0,0-2.2-0.4-5.2,1.4c0,0-2.7,0.8-3.9-4.1l-1.3-4.6l3.1-2.8
			c0,0-3.7-5.6-0.6-6.3h0.5c0,0,0.7,3.5,1.3,3.8c0,0,6.2,0.4,6.8,2L457.4-149.8z"/>
		<path class="st7" d="M429-161.3c0,0-62.4-31.6-120.9-12.5c0,0-1.5,0.5-0.4,0.9c0.2,0.1,0.6,0,0.7-0.1c0.1,0,0.4-0.1,0.6-0.2
			c23.7-8.4,61.9-12,119.5,13.5L429-161.3z"/>
		<line class="st18" x1="308.1" y1="-173.8" x2="308.1" y2="46.9"/>
		<path class="st18" d="M428.5-159.7c0,0-25.8,6.4-22.3-8.8c0,0-23.1,4.7-25.5-7.2c0,0-35.7,5.6-47.9-2.9c0,0-11.2,5.6-23.8,5.4"/>
		<path class="st19" d="M434.8-155.6c0,2.6-2.1,4.8-4.8,4.8c-2.6,0-4.8-2.1-4.8-4.8s2.1-4.8,4.8-4.8
			C432.6-160.4,434.8-158.3,434.8-155.6z"/>
		<path class="st20" d="M433-155.6c0,1.7-1.3,3-3,3c-1.7,0-3-1.3-3-3c0-1.7,1.3-3,3-3C431.7-158.6,433-157.3,433-155.6z"/>
		<path class="st21" d="M430.4-155.6c0,0.2-0.2,0.4-0.4,0.4c-0.2,0-0.4-0.2-0.4-0.4c0-0.2,0.2-0.4,0.4-0.4
			C430.2-156,430.4-155.9,430.4-155.6z"/>
		
			<rect x="455.6" y="-148.2" transform="matrix(0.2374 -0.9714 0.9714 0.2374 492.2449 335.2963)" class="st22" width="8.2" height="4.6"/>
	</g>
	<path class="st23" d="M533.3-134.4c0,0,0.8-5.2,3.4-5.4c0,0,0.9-2.4-1.1-4.4l0.8-0.9c0,0,0.5-0.4,0.5-1.5
		c-0.3-6.6-5.3-47.7-45-48.4c0,0-11.5,2.4-12.5,17.2c0,0,1.7,40.4,18,42.4C497.4-135.5,533.7-126.5,533.3-134.4z"/>
	<path class="st24" d="M481.3-172c0,0-1.8-12,11.2-10.7c12.9,1.3,12.5,17.9,6.8,20C499.3-162.7,482.8-152.4,481.3-172z"/>
	<path class="st25" d="M481.3-172.1c0,0-1.6-10.7,10.5-9.5c12.1,1.2,11.7,15.9,6.4,17.7C498.1-163.8,482.7-154.7,481.3-172.1z"/>
	<path class="st26" d="M490.8-158c0,0,15.2-4.6,14-2.5c-1.2,2.1-3.5,4.1-3.5,4.1s9.7,0.2,5.1,2.7c-4.5,2.5,13.1,6.1,3.6,6.1
		c-9.4,0,7.8,5.5,1.4,5.9C505-141.2,484.1-155.2,490.8-158z"/>
	<path class="st27" d="M499-173.6c0,0,4.9,41.3-7.2,37.4c-16.7-5.3-32.5-4.1-32.5-4.1l1.8-8.3l0.5-2.1c0,0,19.7,4.7,23.4,2.1
		c0,0-4.3-1.9-1.1-2.2c0,0-1.1-4,0.7-4c0,0-6-22.7,0.9-24.1C485.6-179,496.6-182.2,499-173.6z"/>
	<path class="st24" d="M487.7-193.6c0-2.4,1.4-5.6,2.6-7.9c1.9-3.5,5.9-7.3,11.5-7.3c1.4,0,1.7,0.1,2.7,0.9c0.6,0.5,1.4,2,0.9,2.7
		c1.6,0.3,6.1,1.5,3.6,3.1c2,1.6,5.2,5.1,0.8,5.9c3.6,1.7,4.8,4.2-0.3,4.9c0,0-15.7-3.2-21.9-2"/>
	<rect x="496.9" y="-117" class="st28" width="38" height="3.4"/>
	<rect x="503.5" y="-112.9" class="st28" width="6.1" height="8.7"/>
	<rect x="522.3" y="-112.9" class="st28" width="6.1" height="8.7"/>
	<rect x="500" y="-113.6" class="st29" width="32" height="1.4"/>
	<path class="st30" d="M526.1-119.5c-0.3,0.2-0.5,0.4-0.8,0.6c-5.3,3.4-14.7,4-31.5-4.3l-14.4-5.3c0,0,3.8,3.2,0,3
		c0,0,0.7,1.9-1,1.2c0,0,2,2.5,0.6,5.4c-0.9,1.9-11.1-0.6-11.1-0.6s-0.1-0.6,1-4.8c0,0-2.8-17.8,6.6-15.6l29.9,6
		c0,0,21.1,3.6,26.6,1.7C532-132.2,532.1-124,526.1-119.5z"/>
	<polygon class="st29" points="480.8,-120.8 465.5,-120.8 465.5,-106.4 479.4,-106.5 	"/>
	<rect x="467.8" y="-120.8" class="st31" width="2.2" height="16.7"/>
	<path class="st25" d="M534-138.4C534-138.4,534-138.4,534-138.4c-0.3,0-25.8,0.3-32.6-4c-0.1-0.1-0.3,0-0.4,0.1
		c-0.1,0.1,0,0.3,0.1,0.4c0.6,0.4,1.3,0.7,2.1,1l-1.3,3.9c-0.1,0.1,0,0.3,0.2,0.4c0,0,0.1,0,0.1,0c0.1,0,0.2-0.1,0.3-0.2l1.3-3.9
		c0.8,0.3,1.6,0.5,2.5,0.7l-0.9,4.1c0,0.2,0.1,0.3,0.2,0.3c0,0,0,0,0.1,0c0.1,0,0.2-0.1,0.3-0.2l0.9-4.1c0.9,0.2,1.9,0.4,3,0.6
		l-1,4.4c0,0.2,0.1,0.3,0.2,0.3c0,0,0,0,0.1,0c0.1,0,0.2-0.1,0.3-0.2l1-4.4c1,0.2,2.1,0.3,3.2,0.4l-0.8,3.9c0,0.2,0.1,0.3,0.2,0.3
		c0,0,0,0,0.1,0c0.1,0,0.2-0.1,0.3-0.2l0.8-3.9c1.1,0.1,2.1,0.2,3.2,0.3l-0.7,4.5c0,0.2,0.1,0.3,0.2,0.3c0,0,0,0,0,0
		c0.1,0,0.3-0.1,0.3-0.2l0.7-4.5c1,0.1,2,0.1,3,0.2l-0.9,4.2c0,0.2,0.1,0.3,0.2,0.3c0,0,0,0,0.1,0c0.1,0,0.2-0.1,0.3-0.2l0.9-4.3
		c1,0.1,2,0.1,3,0.1l-0.9,4c0,0.2,0.1,0.3,0.2,0.3c0,0,0,0,0.1,0c0.1,0,0.2-0.1,0.3-0.2l0.9-4.1c1.1,0,2.1,0.1,3.1,0.1l-1,4.3
		c0,0.1,0.1,0.3,0.2,0.3c0,0,0,0,0.1,0c0.1,0,0.2-0.1,0.3-0.2l1.1-4.4c1.2,0,2.2,0,3.1,0l-1,4.2c0,0.1,0.1,0.3,0.2,0.3
		c0,0,0,0,0.1,0c0.1,0,0.2-0.1,0.3-0.2l1.1-4.4c0.1,0,0.1,0,0.2,0c0.9,0,1.4,0,1.5,0c0.2,0,0.3-0.1,0.3-0.3
		C534.3-138.2,534.1-138.4,534-138.4z"/>
	<path class="st26" d="M534.5-140.4c-2.4-0.6-7.6-1.8-10.2-1.2c-3.5,0.8,0,1.5,4.1,1.5c2,0,4.6,0.6,5.4,0.8c0.1,0,0.5,0,0.4-0.1
		c-0.8-0.6,0.4-0.3,0.8-0.5C535.1-140,535.2-140.3,534.5-140.4z"/>
	<g class="st3">
		<g>
			<g>
				<g>
					<path class="st32" d="M579.9-117.5l-1.4,4.8l-1.7,5.9l-0.5,1.7l-1.9,6.5l-0.5,1.7l-1.9,6.5l-0.5,1.7l-2.4,8.2
						c0,0-40.9,9.5-98.1,9.5c-47.1,0-77.1-5.3-77.1-5.3s-8-1.8-17.2-6.2c-0.9-0.4-1.8-0.9-2.8-1.4c-4.9-2.6-10-5.9-14.3-10l0,0
						l-1.2-1.2c-2.6-2.7-4.8-5.7-6.4-9l0,0l-0.9-0.7l0.4-0.4c-1.3-3-2.5-5.8-2.7-9.3c0-0.7-0.1-1.7-0.1-2.4c0,0,1.7,0.3,4.3,0.8
						c12.5,2.3,54.2,9.1,115.9,9.1c58.3,0,90.8-5.6,104-8.5C577.7-116.8,579.9-117.5,579.9-117.5z"/>
				</g>
			</g>
		</g>
		<g>
			<g>
				<g>
					<path class="st33" d="M578.3-109l-1.3,4.8l-1.6,5.9l-0.5,1.7l-1.8,6.5l-0.5,1.7l-1.8,6.5l-0.5,1.7l-2.3,8.2
						c0,0-38.5,9.5-92.2,9.5c-44.3,0-72.5-5.3-72.5-5.3s-7.5-1.8-16.1-6.2c-0.9-0.4-1.7-0.9-2.6-1.4c-4.6-2.6-9.4-5.9-13.4-10l0,0
						l-1.1-1.2c-2.4-2.7-4.5-5.7-6-9l0,0l-0.8-0.7l0.3-0.4c-1.2-3-2.4-5.8-2.6-9.3c0-0.7-0.1-1.7-0.1-2.4c0,0,1.6,0.3,4,0.8
						c11.7,2.3,51,9.1,109,9.1c54.8,0,85.4-5.6,97.7-8.5C576.2-108.2,578.3-109,578.3-109z"/>
				</g>
			</g>
		</g>
		<g>
			<path class="st34" d="M579.9-112.8l-1.4,4.8l-1.7,5.9l-0.5,1.7l-1.9,6.5l-0.5,1.7l-1.9,6.5l-0.5,1.7l-2.4,8.2
				c0,0-40.9,9.5-98.1,9.5c-47.1,0-77.1-5.3-77.1-5.3s-8-1.8-17.2-6.2c-0.9-0.4-1.8-0.9-2.8-1.4c-4.9-2.6-10-5.9-14.3-10l0,0
				l-1.2-1.2c-2.6-2.7-4.8-5.7-6.4-9l0,0l-0.5-1.1l0-0.1c-1.3-3-2.1-6.2-2.4-9.7c0-0.7-0.1-1.3-0.1-2c0,0,1.3,0.3,3.9,0.8
				c12.5,2.3,54.2,9.1,115.9,9.1c58.3,0,90.8-5.6,104-8.5C577.7-112.1,579.9-112.8,579.9-112.8z"/>
			<path class="st34" d="M578.9-108.8c-0.5,1.6-2,2.5-3.3,1.9l-0.9-0.4c-1.4-0.6-2.1-2.3-1.6-3.9l3.1-10.8c0.5-1.6,2-2.5,3.3-1.9
				l0.9,0.4c1.4,0.6,2.1,2.3,1.6,3.9L578.9-108.8z"/>
		</g>
		<g>
			<g>
				<path class="st33" d="M570.1-101l-35.7,5.3c0,0-0.1,0-0.1,0c-0.4,0-0.7-0.3-0.8-0.7c-0.1-0.4,0.2-0.8,0.7-0.9l36.5-5.4
					L570.1-101z"/>
				<path class="st33" d="M567.7-92.8l-48.8,7c0,0-0.1,0-0.1,0c-0.4,0-0.7-0.3-0.8-0.7c-0.1-0.4,0.2-0.8,0.7-0.9l49.5-7.2
					L567.7-92.8z"/>
				<path class="st33" d="M565.3-84.6l-33.8,5c0,0-0.1,0-0.1,0c-0.4,0-0.7-0.3-0.8-0.7c-0.1-0.4,0.2-0.8,0.7-0.9l34.5-5.1
					L565.3-84.6z"/>
			</g>
		</g>
		<g>
			<g>
				<path class="st33" d="M358.5-102l32.5,3.5c0.4,0,0.7,0.3,0.6,0.6c-0.1,0.3-0.4,0.5-0.7,0.5c0,0-0.1,0-0.1,0l-31.7-3.4L358.5-102
					z"/>
				<path class="st33" d="M365.4-91.9l40.4,4.3c0.4,0,0.7,0.3,0.6,0.6c-0.1,0.3-0.4,0.5-0.7,0.5c0,0-0.1,0-0.1,0l-39-4.1L365.4-91.9
					z"/>
				<path class="st33" d="M398.2-78.2c-0.1,0.3-0.4,0.5-0.7,0.5c0,0-0.1,0-0.1,0l-13.7-1.5c-0.9-0.4-1.8-0.9-2.8-1.4l16.7,1.8
					C398-78.8,398.3-78.5,398.2-78.2z"/>
			</g>
		</g>
	</g>
	<g class="st3">
		<path class="st35" d="M310.9-90.6c0,0.8,0,1.6-0.1,2.3c-0.3,3.4-1.4,5.9-2.7,5.9c-1.3,0-2.4-2.5-2.7-5.9c-0.1-0.7-0.1-1.5-0.1-2.3
			c0-0.8,0-1.6,0.1-2.3c0.3-3.4,1.4-5.9,2.7-5.9c1.3,0,2.4,2.5,2.7,5.9C310.9-92.2,310.9-91.4,310.9-90.6z"/>
		<path class="st36" d="M310.9-90.6c0,0.8,0,1.6-0.1,2.3h-5.4c-0.1-0.7-0.1-1.5-0.1-2.3c0-0.8,0-1.6,0.1-2.3h5.4
			C310.9-92.2,310.9-91.4,310.9-90.6z"/>
	</g>
</g>
<rect x="0.6" y="-81" class="st37" width="849.8" height="939.9"/>
<g class="st0">
	<path class="st38" d="M191-59.2c-29.7,0-56.2-31.5-85.9-31.5S30.3-64.4,0.6-64.4V-81c0,0,137.8,0.2,208.1,0.2
		c70.3,0,144.6-0.2,214.9-0.2c70.3,0,136.1,0.2,206.4,0.2c70.3,0,150.1,0,220.4,0v32.5c-70.3,0-146.5-42.5-216.8-42.5
		c-70.3,0-92.4,28.9-201.1,28.9c-40.6,0-88.5-28.9-129.1-28.9C262.8-90.8,231.6-59.2,191-59.2z"/>
</g>
<path class="st39" d="M301.4,678.8"/>
<path class="st39" d="M301.4-12.4"/>
<g>
	<defs>
		<rect id="SVGID_1_" y="-447.1" width="850.4" height="1306"/>
	</defs>
	<clipPath id="SVGID_2_">
		<use xlink:href="#SVGID_1_"  style="overflow:visible;"/>
	</clipPath>
	<g class="st40">
		<path class="st41" d="M1035.5,1037.6c-58.8,4.9-86.2-10.4-113,1.4c-25.8,13.7-30.9,44.7-71.2,87.8c-51.5,55-67.6,16.5-67.6,16.5
			s48.4-32.7,28.8-86.8c-3.7-10.1-3.3-19.2-0.2-27.5c4.6-12.4,15.4-22.7,27.4-30.8l0,0c1.2-0.8,2.4-1.6,3.7-2.4
			c6.8-5.1,17.9-17.2-17.3-25.7c-8.8-2.1-33.7-7.8-68.8-17.8C601.5,908,244.6,780.1,199,511.6c-43.2-13.2,0.4,17.2-16.9,54.9
			c-19.9,43.2-13.2,36.9-36.8,18.7c-37-28.6-127.9-87.6,19-138.5c27.1-9.4,16.7-7,30.5-15.3c0.3-4.6,0.6-9.2,1.1-13.9l0,0
			c0-0.4,0.1-0.9,0.1-1.3c0.1-1.2,0.2-2.3,0.4-3.5c0.2-1.8,0.4-3.6,0.6-5.4c0.1-1.2,0.3-2.3,0.4-3.5c0.1-1.1,0.3-2.1,0.4-3.2
			c0.2-1.3,0.4-2.5,0.5-3.8c0.2-1.2,0.4-2.3,0.6-3.5c0.2-1,0.3-2.1,0.5-3.2c0.3-1.8,0.6-3.6,0.9-5.4c0.2-1.3,0.5-2.7,0.7-4
			c0.3-1.3,0.5-2.7,0.8-4c0.3-1.3,0.5-2.7,0.8-4c1.4-6.8,3.1-13.8,4.9-20.7c0.6-2.2,1.2-4.5,1.8-6.7c0.2-0.8,0.4-1.5,0.6-2.3
			c1.4-4.9,2.9-9.8,4.4-14.8c0.3-0.9,0.6-1.8,0.8-2.7c0.6-1.7,1.1-3.5,1.7-5.2c0.4-1.1,0.7-2.2,1.1-3.3c0.3-0.8,0.6-1.7,0.9-2.5
			c0.4-1,0.7-2.1,1.1-3.1c20.1-56.9,52.5-118.2,99.9-184.2c1.1-1.5,2.1-3,3.2-4.4c1.8-2.4,3.6-4.9,5.4-7.3c0.3-0.4,0.7-0.9,1-1.3
			c0.9-1.2,1.8-2.3,2.7-3.5c1.8-2.3,3.6-4.7,5.5-7c0.6-0.7,1.1-1.4,1.7-2.1c0.9-1.1,1.8-2.2,2.7-3.3c1.2-1.5,2.4-2.9,3.6-4.4
			c1.1-1.3,2.1-2.6,3.2-3.8c1.2-1.4,2.3-2.7,3.5-4c1.1-1.3,2.3-2.6,3.4-3.9c0.1-0.1,0.1-0.1,0.2-0.2c1.1-1.3,2.3-2.6,3.5-3.9
			c1.2-1.3,2.4-2.6,3.6-3.9c1.2-1.3,2.4-2.6,3.6-3.8c1.2-1.3,2.4-2.5,3.7-3.8c1.2-1.2,2.5-2.5,3.7-3.7c1.3-1.3,2.6-2.6,3.9-3.9
			c1.2-1.1,2.3-2.2,3.5-3.3c6.3-5.9,12.6-11.4,18.9-16.4c0.6-0.5,1.2-0.9,1.7-1.4c3.9-3,7.8-5.9,11.7-8.5c1.2-0.8,2.4-1.6,3.6-2.4
			c0,0,0.1,0,0.1-0.1c1.2-0.7,2.3-1.5,3.5-2.2l0.2-0.1c0.6-0.4,1.3-0.8,1.9-1.1c1.7-1,3.3-1.9,5-2.8l0,0c2.1-1.1,4.1-2.1,6.2-3.1
			c38.8-18,73.4-7.3,87.6,63.8c16.3,82,258.8,787.3,385.2,883c25.1-14.5,75-36.7,97.1-0.8c30.2,49,85.9,31.3,85.9,31.3
			S1110.5,1031.3,1035.5,1037.6z"/>
		<path class="st42" d="M194.8,431.4c5.4-88,42.6-189,125.3-304.3c31.3-43.7,75.1-91.4,114.6-109.6l3.5,222.4c0,0-6.8,40.3-75.7,69
			C293.5,337.6,243.4,352.2,194.8,431.4z"/>
		<path class="st43" d="M356.1,306.5c-6.1,2.6-12.1,5-17.9,7.4c-4.8,2-9.5,3.9-14.1,5.8c-8.3,3.4-16.3,6.8-24,10.4
			c-4.4,2-8.6,4-12.8,6.2c-7.3,3.7-14.4,7.6-21.3,11.9c-4.4,2.7-8.6,5.6-12.9,8.6c-9.1,6.6-18,14.1-26.7,22.9
			c-4.2,4.2-8.3,8.8-12.4,13.7c-6.1,7.2-12.1,15.2-18,24.1c8.3-84.7,45.8-181.1,124.2-290.4c29.7-41.4,70.6-86.4,108.3-106.5
			l0.3,17.8l0.2,13.1l0.5,32.8l0.2,13.4l0.5,33.3l0.2,13.2c0,0,0,0,0,0l0.7,42l0.2,13.1l0.6,38.3C431.9,237.5,425,277.8,356.1,306.5
			z"/>
		<g>
			<path class="st44" d="M468.7,365.9c-1-0.4-1.8-1-2.6-1.8c-12.8-14.4-18-27.9-15.6-40.1c3-14.9,16.4-21.5,16.9-21.8
				c3.2-1.6,7.1-0.2,8.6,3c1.6,3.2,0.2,7.1-3,8.6c-0.2,0.1-8.3,4.3-10,12.8c-1.5,7.9,2.8,17.8,12.6,28.8c2.4,2.7,2.1,6.8-0.6,9.1
				C473.4,366.3,470.9,366.7,468.7,365.9z"/>
		</g>
		<path class="st43" d="M757.3,952.3c-15.9-4.5-34-9.9-53.6-16.3c-12-3.9-24.6-8.1-37.6-12.7c-13.9-4.9-28.3-10.2-43-15.9
			c0,0,0,0,0,0c-13.6-5.3-27.4-10.9-41.5-16.9c0,0,0,0,0,0c-15.7-6.7-31.7-13.9-47.8-21.6l0,0c-18.8-9-37.6-18.7-56.4-29
			c-23.1-12.8-45.9-26.6-68-41.6c0,0,0,0,0,0c-23.2-15.7-45.6-32.7-66.6-50.9l0,0C270.8,684.8,215.2,607.1,199,511.6
			c0,0,6.2-5.5,15.6-12.2c2.8-2,5.9-4.1,9.3-6.2c5.9-3.7,12.4-7.4,19.2-10.4c3.2-1.4,6.5-2.7,9.8-3.8c6.9-2.2,13.8-3.5,20.4-3.1
			c3.6,0.2,7.1,0.9,10.4,2.1l0,0c5.4,2.1,10.2,5.8,14.3,11.5c0.7,1,1.5,2.2,2.3,3.6c4.4,6.9,10.2,17.8,17.8,31.7
			C365.5,611.7,482.9,818.9,757.3,952.3z"/>
		<g class="st45">
			<path class="st46" d="M623,907.3c-13.6-5.3-27.4-10.9-41.5-16.9c0,0,0,0,0,0C392.7,753.6,289.3,614.5,273.3,476
				c-1.7-14.5-2.4-28.9-2.2-43.4c0.5-32.3,5.9-64.6,16.1-96.4c5-15.7,11.2-31.2,18.5-46.5c17.7-37.1,42.2-73.4,72.7-107.7
				c17.9-20.1,35.9-37.3,51.7-51.1l0.2,13.2c0,0,0,0,0,0c-14,12.6-29.3,27.5-44.6,44.8c-30.5,34.4-65,82.5-85.7,141.2
				c-11.1,31.4-18.3,65.8-18.9,102.7c-0.2,15.1,0.6,30.2,2.5,45.3l0,0C301.7,621.1,415.6,765.3,623,907.3z"/>
			<path class="st46" d="M703.6,936c-12-3.9-24.6-8.1-37.6-12.7c-127.8-86-223.6-171.7-285.2-255.5c-43.5-59-70.4-117.5-80.5-174.6
				c-3.5-19.7-5-39.2-4.4-58.5c1.2-43,12.4-81.5,28.2-115c19.3-40.7,45.6-73.9,69.2-98.4c13-13.5,25.9-25.3,37.8-35.2l0.2,13.1
				c-10,8.6-20.5,18.4-31,29.3c-20.9,21.8-44,50.5-62,85.4c-18,34.6-31.1,75.3-32.3,121.2c-0.8,29.4,3.3,59.4,12.1,89.8
				c13.1,45,36.8,90.8,70.9,137C454.9,751.5,560.7,843.7,703.6,936z"/>
			<path class="st46" d="M533.7,868.8c-18.8-9-37.6-18.7-56.4-29C334,727.9,255.4,608.2,243.1,482.9c-0.8-7.8-1.3-15.7-1.5-23.5
				c-1.1-33.9,2.7-68.3,11.4-102.6c4.7-18.7,10.9-37.5,18.5-56.2c17.2-42.2,41.6-84.1,72.7-124.6c31.9-41.5,64.3-73.1,85.2-91.8
				l0.2,13.4c-20.4,18.8-49.3,47.8-77.6,84.8c-31.6,41.3-66.9,98.4-86.2,165.8c-9.9,34.5-15.5,71.8-14.2,111
				c0.2,6.7,0.6,13.3,1.2,20C265.2,616.4,359.5,747.3,533.7,868.8z"/>
			<path class="st46" d="M409.3,798.2c-23.2-15.7-45.6-32.7-66.6-50.9l0,0c-72.5-78.9-115.4-161.8-128.1-247.8
				c-2.1-13.8-3.3-27.8-3.8-41.7c-0.8-21.3,0.3-42.8,3.2-64.4c4.7-34.8,14.1-69.9,28.1-104.9c18.2-45.2,44.2-90.3,77.2-134.1
				c46.1-61.1,93.6-102.7,109.4-115.9l0.2,13.1c-19.6,16.9-61.1,55.4-101.7,109.2c-39.8,52.8-85.1,129.4-100.8,219.1
				c-4.4,25-6.5,51-5.5,77.7c0.4,12,1.4,24,3.1,35.8C238.4,600.1,300.5,702.3,409.3,798.2z"/>
		</g>
		<path class="st41" d="M343.6,316.6c0,0-94.9,28.3-138.2,98.5l3.5,88.5c0,0,56.2-43.2,80.7-22.3c8.2,7,34.5,54.7,34.5,54.7
			S424.9,356.8,343.6,316.6z"/>
	</g>
</g>
</svg>
