<svg id="whale" data-name="whale" xmlns="http://www.w3.org/2000/svg" viewBox="0 0 1206.8 720.07"><defs><style>.cls-1{fill:#232d4f;}.cls-2{fill:#4cadd3;opacity:0.83;}.cls-3{fill:#54c0ef;}.cls-4{opacity:0.49;}.cls-5{fill:#475a7c;}.cls-6{opacity:0.4;}.cls-7{fill:#bbeaff;}</style></defs><title>wide-whale</title><path class="cls-1" d="M41.55,453.72c41.29,42.12,72,48.5,84.63,74.9,10.59,27.27-5.82,54-3.44,113,3.05,75.22,40.39,56.7,40.39,56.7S147.82,641.9,198,613.81c9.36-5.24,15-12.43,18.08-20.67,4.59-12.41,3.19-27.21-.61-41.26h0c-.38-1.4-.78-2.8-1.22-4.19-1.85-8.32-2.27-24.72,29.86-8.17,8,4.13,30.62,16.07,63.73,31.48,146.79,68.28,500.55,204.65,710.53,31.25,41.29,18.21-11.57,12.77-23.06,52.59-13.19,45.72-14.12,36.55,15.6,38.18,46.71,2.57,154.08,17.27,76.14-117.28-14.38-24.84-8.11-16.22-13.09-31.5,2.8-3.68,5.54-7.42,8.25-11.26v0l.78-1.11c.67-.94,1.33-1.91,2-2.88,1-1.49,2.06-3,3.07-4.52.65-1,1.28-1.94,1.91-2.91s1.17-1.8,1.75-2.69l2.06-3.21c.61-1,1.24-2,1.86-3s1.12-1.81,1.67-2.72q1.42-2.32,2.8-4.69c.69-1.16,1.39-2.33,2-3.51s1.36-2.35,2-3.54,1.34-2.38,2-3.59q5.07-9.17,9.86-18.87c1-2.07,2-4.15,3-6.24.34-.7.68-1.41,1-2.13q3.26-6.91,6.33-14.1.57-1.29,1.11-2.58c.72-1.69,1.44-3.38,2.13-5.09.44-1.08.89-2.17,1.33-3.27.33-.83.67-1.65,1-2.48.41-1,.83-2.06,1.22-3.1,22-56.17,37.48-123.79,44.81-204.72.16-1.81.32-3.62.46-5.46.25-3,.46-6,.66-9.05,0-.54.07-1.09.1-1.63.1-1.46.18-2.93.26-4.39.15-3,.29-5.9.41-8.87,0-.89.07-1.77.09-2.66,0-1.43.1-2.87.12-4.3,0-1.88.09-3.77.11-5.66,0-1.67,0-3.33,0-5s0-3.56,0-5.34,0-3.48,0-5.22c0-.08,0-.16,0-.22,0-1.74-.06-3.49-.11-5.22s-.11-3.56-.18-5.33-.15-3.54-.24-5.29-.19-3.52-.3-5.28-.23-3.49-.37-5.23-.3-3.68-.45-5.5c-.15-1.63-.31-3.23-.48-4.85-.9-8.53-2.09-16.84-3.61-24.78-.14-.73-.28-1.47-.42-2.18q-1.46-7.27-3.29-14.09c-.38-1.39-.77-2.77-1.18-4.13,0,0,0-.07,0-.1-.4-1.33-.82-2.65-1.23-3.94l-.09-.26c-.23-.7-.46-1.4-.7-2.08-.61-1.82-1.26-3.61-2-5.35v0c-.86-2.2-1.75-4.32-2.69-6.39-17.66-39-50.77-53.51-108-8.91C989,116.68,344.58,492.05,186.33,482c-9.55-27.34-32.77-76.77-73-64.06-54.86,17.32-85.44-32.45-85.44-32.45S-11.17,400,41.55,453.72Z"/><path class="cls-2" d="M1074,544.23c53.46-70.12,91.22-170.89,104-312.25,4.85-53.52,2.85-118.26-15.09-157.81l-148,166.1s-21.17,35,12.22,101.71S1089,452.56,1074,544.23Z"/><path class="cls-3" d="M1033.47,344.31q4.46,8.9,8.76,17.28,3.52,6.95,6.9,13.65c4,8,7.85,15.78,11.41,23.55,2,4.35,3.91,8.69,5.69,13,3.15,7.55,6,15.14,8.38,22.93q2.31,7.35,4.11,14.94a207.56,207.56,0,0,1,5.21,34.77c.39,5.93.54,12.06.44,18.43a277,277,0,0,1-2.12,30.07c49.08-69.51,83.64-167,95.78-301,4.61-50.74,3-111.54-12.41-151.43l-11.85,13.3-8.68,9.75-21.81,24.47-8.9,10L1092.2,163l-8.82,9.88v0l-27.91,31.34-8.7,9.76-25.51,28.63S1000.09,277.55,1033.47,344.31Z"/><g class="cls-4"><path class="cls-5" d="M932.13,294.06a2.54,2.54,0,0,0,1.23.14c7.53-1,12.58-3.69,15-8,2.95-5.21.65-10.65.55-10.88a2.56,2.56,0,0,0-4.7,2,8,8,0,0,1-.33,6.4c-1.57,2.74-5.44,4.6-11.19,5.37a2.57,2.57,0,0,0-2.2,2.88A2.53,2.53,0,0,0,932.13,294.06Z"/></g><path class="cls-3" d="M307.88,571c15,7,32.24,14.7,51.24,22.71,11.61,4.9,23.9,9.92,36.76,15,13.7,5.35,28.08,10.74,43,16.06h0Q459.48,632,481.38,639h0c16.31,5.2,33.12,10.19,50.29,14.86h0c20.1,5.46,40.69,10.47,61.63,14.86,25.81,5.41,52.14,9.84,78.63,13h0a696.55,696.55,0,0,0,83.65,5h0c95.26-.31,188.11-22.8,262.78-84.46,0,0-1.08-8.19-3.85-19.42-.83-3.36-1.82-7-3-10.76a149,149,0,0,0-7.78-20.42,96.71,96.71,0,0,0-4.93-9.23,57.12,57.12,0,0,0-13.39-15.69,33.23,33.23,0,0,0-9.27-5.17h0a31.07,31.07,0,0,0-18.31-.62c-1.24.31-2.59.7-4.1,1.17-7.85,2.4-19.31,6.8-34.13,12.37C827,569.22,602.72,649.29,307.88,571Z"/><g class="cls-6"><path class="cls-7" d="M438.91,624.73Q459.48,632,481.38,639h0c232.27,19.8,401.4-17.89,504.09-112.31a327.59,327.59,0,0,0,80.74-114.89,370.59,370.59,0,0,0,16.37-47.33c10.85-39.69,16-83.11,15.33-129A575.68,575.68,0,0,0,1092.2,163l-8.82,9.88v0a561.28,561.28,0,0,1,4.5,63c.63,45.94-4.72,104.87-27.33,162.87a317.15,317.15,0,0,1-84.32,122.76h0C869.11,618,688.74,652.7,438.91,624.73Z"/><path class="cls-7" d="M359.12,593.7c11.61,4.9,23.9,9.92,36.76,15,152.89,18.43,281.48,16.11,382.87-7,71.45-16.27,130.07-42.95,175-79.59a288.77,288.77,0,0,0,41.57-41.36c27.23-33.33,43.93-69.8,53.77-105.49,12-43.43,13.78-85.69,12-119.68a477.38,477.38,0,0,0-5.63-51.35l-8.7,9.76c1.92,13,3.49,27.29,4.29,42.46,1.6,30.14.27,66.95-8.82,105.16-9,38-25.68,77.29-54.72,112.84q-27.94,34.21-67.85,60c-39.33,25.45-87.2,44.66-143.21,57.41C667.93,616.57,527.61,617.18,359.12,593.7Z"/><path class="cls-7" d="M531.7,653.9c20.1,5.46,40.69,10.47,61.63,14.86,181.61,9,319.32-30.27,410.48-117.12q8.52-8.13,16.52-16.8a369.31,369.31,0,0,0,58.39-85.14,422.32,422.32,0,0,0,22.69-54.59c14.57-43.15,23.45-90.89,26.41-141.86a679.32,679.32,0,0,0-4.54-125.17l-8.9,10A672.89,672.89,0,0,1,1117.74,253c-3,51.9-13.63,118.21-43.13,181.79-15.11,32.59-35.19,64.46-61.73,93.31-4.54,4.92-9.19,9.7-14,14.34C899.82,638.3,742.87,675.74,531.7,653.9Z"/><path class="cls-7" d="M672,681.72a696.55,696.55,0,0,0,83.65,5h0c106.43-12.39,193-47.07,258.93-103.88a371.7,371.7,0,0,0,30.19-29.09,380.9,380.9,0,0,0,39.62-50.83,435.86,435.86,0,0,0,47.25-97.79c15.77-46.12,25.59-97.25,29.2-152,5-76.43-3.69-138.93-7-159.26l-8.68,9.75a727.28,727.28,0,0,1,5.66,149.15c-4.38,66-20.14,153.57-66.82,231.71a369.84,369.84,0,0,1-46.61,62.45q-12.24,13.22-25.73,25.14C930.77,643.53,817,680.22,672,681.72Z"/></g><path class="cls-1" d="M1036.36,360.12s53.33,83.43,40.23,164.85l-60.46,64.66s-14.3-69.43-46.49-69.6c-10.82-.06-61.88,18.86-61.88,18.86S948.62,337.39,1036.36,360.12Z"/></svg>